<svg width="62" height="55" viewBox="0 0 62 55" fill="none" xmlns="http://www.w3.org/2000/svg">
<g clip-path="url(#clip0_12_2)">
<path d="M27.6055 40.382V3.2406C32.0475 5.51747 34.2685 13.4865 34.8238 17.1864V29.1399C34.8238 32.8398 32.7416 41.0935 39.2658 45.6473C45.7898 50.2009 52.1752 46.0741 53.7021 42.232C55.2291 38.3897 55.2291 30.4206 47.7332 27.8592C41.7366 25.81 37.3686 29.7566 35.9342 31.986V20.744C39.5989 19.6055 44.3092 19.7004 46.2063 19.8902C61.6143 22.8786 61.8919 33.8359 61.8919 37.6782C61.8919 41.5204 59.1158 54.7547 44.2629 54.897C32.3806 55.0108 28.2071 45.2678 27.6055 40.382Z" fill="black"/>
<path d="M13.8388 8.45087C19.3658 6.1706 23.9893 9.7872 25.9398 12.4903V2.10214C20.8316 -0.857779 13.9095 0.109889 11.0871 0.963714C-0.79521 6.31435 -0.711922 17.5184 0.815003 22.4516C4.59067 36.7959 19.1381 36.5872 25.9398 34.6898V23.3054C24.6072 26.0377 20.2023 27.4797 18.1664 27.8592C9.75088 27.8592 7.64697 22.7232 7.81485 17.8074C7.9507 13.8299 10.1926 9.9552 13.8388 8.45087Z" fill="black"/>
<path d="M27.6055 40.382V3.2406C32.0475 5.51747 34.2685 13.4865 34.8238 17.1864V29.1399C34.8238 32.8398 32.7416 41.0935 39.2658 45.6473C45.7898 50.2009 52.1752 46.0741 53.7021 42.232C55.2291 38.3897 55.2291 30.4206 47.7332 27.8592C41.7366 25.81 37.3686 29.7566 35.9342 31.986V20.744C39.5989 19.6055 44.3092 19.7004 46.2063 19.8902C61.6143 22.8786 61.8919 33.8359 61.8919 37.6782C61.8919 41.5204 59.1158 54.7547 44.2629 54.897C32.3806 55.0108 28.2071 45.2678 27.6055 40.382Z" stroke="white"/>
<path d="M13.8388 8.45087C19.3658 6.1706 23.9893 9.7872 25.9398 12.4903V2.10214C20.8316 -0.857779 13.9095 0.109889 11.0871 0.963714C-0.79521 6.31435 -0.711922 17.5184 0.815003 22.4516C4.59067 36.7959 19.1381 36.5872 25.9398 34.6898V23.3054C24.6072 26.0377 20.2023 27.4797 18.1664 27.8592C9.75088 27.8592 7.64697 22.7232 7.81485 17.8074C7.9507 13.8299 10.1926 9.9552 13.8388 8.45087Z" stroke="white"/>
</g>
<defs>
<clipPath id="clip0_12_2">
<rect width="62" height="55" fill="white"/>
</clipPath>
</defs>
</svg>
